<?xml version="1.0" standalone="no"?>
<!DOCTYPE svg PUBLIC "-//W3C//DTD SVG 20010904//EN"
 "http://www.w3.org/TR/2001/REC-SVG-20010904/DTD/svg10.dtd">
<svg version="1.0" xmlns="http://www.w3.org/2000/svg"
 width="1500pt" height="800pt" viewBox="0 0 7066.000000 3189.000000"
 preserveAspectRatio="xMidYMid meet">

<g transform="translate(0.000000,3189.000000) scale(0.100000,-0.100000)"
fill="#000000" stroke="none">
<path d="M0 15945 l0 -15945 35330 0 35330 0 0 15945 0 15945 -35330 0 -35330
0 0 -15945z m20764 8835 c54 -48 51 -32 81 -470 13 -190 30 -409 51 -667 4
-45 10 -86 13 -91 3 -5 92 -37 196 -72 284 -94 934 -319 956 -331 55 -29 76
-127 40 -186 -26 -42 1 -30 -868 -396 -62 -26 -72 -34 -68 -51 18 -75 205
-1243 205 -1276 0 -82 -49 -130 -133 -130 -30 0 -54 7 -76 23 -17 12 -259 257
-537 545 l-506 523 -87 -83 c-683 -659 -816 -785 -846 -797 -67 -27 -152 14
-175 84 -9 26 -7 58 5 142 9 59 41 274 71 477 l54 369 -32 36 c-40 46 -461
499 -676 729 -90 95 -172 188 -183 205 -36 61 -15 143 48 184 23 15 57 19 223
23 172 5 201 9 243 28 84 38 199 56 357 57 153 0 272 -10 302 -26 10 -5 18 -7
18 -4 0 2 24 -4 54 -16 44 -16 73 -19 152 -17 l98 3 175 250 c495 705 665 939
693 953 13 6 44 11 70 11 39 1 53 -4 82 -29z m14060 -440 c41 -15 277 -312
458 -575 166 -242 344 -543 479 -809 92 -180 96 -207 39 -258 l-30 -28 -983 0
c-955 0 -983 1 -1014 20 -38 23 -57 77 -42 118 42 110 273 528 419 757 198
312 525 745 583 773 28 14 59 14 91 2z m-25364 -540 c310 -24 562 -86 900
-223 325 -131 435 -205 716 -484 190 -189 268 -282 389 -463 160 -239 285
-517 355 -789 37 -143 420 -1870 420 -1894 0 -42 -57 -97 -101 -97 -40 0 -95
31 -103 57 -3 10 -85 371 -181 803 -97 432 -189 844 -206 917 -16 72 -41 171
-55 220 -155 540 -507 1021 -969 1328 -644 427 -1397 529 -2125 289 -308 -102
-644 -303 -855 -511 -71 -70 -196 -217 -249 -293 -95 -137 -271 -430 -337
-561 -184 -368 -250 -865 -173 -1314 8 -49 146 -673 306 -1385 159 -712 290
-1313 290 -1334 1 -104 -162 -136 -200 -39 -19 48 -600 2661 -619 2783 -22
142 -25 573 -5 715 45 317 134 631 241 850 62 127 190 326 263 410 191 219
291 315 489 468 192 147 481 307 713 392 349 128 731 182 1096 155z m4000 -50
c301 -19 576 -58 673 -95 31 -12 120 -15 520 -15 395 0 487 -3 509 -14 15 -8
152 -119 304 -248 304 -256 585 -492 1005 -843 150 -126 402 -337 559 -469
157 -132 364 -306 461 -387 97 -81 186 -159 197 -174 51 -65 15 -176 -65 -204
-71 -25 -94 -11 -368 220 -137 115 -369 310 -515 432 -146 122 -460 387 -699
587 -239 201 -556 467 -705 592 l-271 227 -656 1 c-382 0 -678 -4 -710 -10
-159 -28 -427 -43 -789 -44 -422 -1 -510 5 -510 35 0 17 -8 19 -78 19 -46 0
-83 -5 -90 -12 -8 -8 -31 -8 -94 0 -53 8 -253 12 -558 12 -292 0 -489 4 -512
10 -20 6 -50 26 -67 46 -57 64 -35 171 42 207 31 15 85 17 474 17 l438 0 140
30 c77 17 143 30 147 30 5 0 8 -13 8 -30 0 -30 0 -30 58 -29 95 2 114 9 127
49 8 23 19 35 31 36 10 1 82 7 159 13 264 22 602 26 835 11z m46186 -142 c439
-73 855 -229 1252 -472 404 -248 732 -551 957 -886 35 -52 275 -457 533 -900
1081 -1854 1126 -1931 1365 -2340 104 -178 260 -446 347 -595 86 -148 275
-472 420 -720 144 -247 301 -517 349 -600 49 -82 166 -283 261 -445 259 -441
316 -566 387 -838 49 -190 73 -367 80 -587 16 -537 -119 -1069 -379 -1489
-105 -171 -140 -207 -538 -560 -548 -487 -2211 -1960 -2362 -2093 l-128 -112
583 -3 582 -3 40 -23 c71 -41 89 -79 95 -201 l5 -106 1611 -5 1610 -5 37 -25
c44 -30 87 -109 87 -159 -1 -48 -30 -111 -66 -141 -17 -14 -345 -223 -731
-465 -386 -242 -700 -442 -697 -446 2 -3 326 -208 720 -455 556 -349 722 -457
740 -484 70 -105 16 -256 -103 -289 -26 -8 -548 -11 -1625 -11 l-1586 0 -4
-109 c-3 -105 -4 -111 -34 -147 -16 -21 -46 -45 -65 -55 -32 -16 -189 -18
-2414 -24 -1309 -4 -2392 -8 -2407 -10 -231 -26 -1516 -31 -1833 -7 -76 6
-1076 13 -2415 17 -2171 7 -2286 8 -2320 25 -75 38 -100 93 -100 220 l0 90
-1608 2 -1608 3 -41 27 c-59 39 -86 88 -87 157 -1 77 29 128 103 175 91 58
674 424 1046 656 189 118 343 218 342 222 -1 4 -319 206 -707 449 -388 242
-716 451 -728 463 -96 87 -71 246 49 306 37 20 70 20 1638 20 l1599 0 4 109
c3 104 4 111 34 148 16 21 48 47 70 58 37 19 64 20 614 25 l576 5 -781 692
c-429 380 -1070 948 -1425 1262 -586 518 -652 580 -722 672 -232 308 -377 682
-449 1159 -29 188 -32 551 -6 733 36 257 112 522 205 718 27 57 136 253 242
434 106 182 265 454 353 605 88 151 245 421 350 600 105 179 337 577 517 885
179 308 488 837 685 1175 197 338 506 867 685 1175 180 308 398 682 485 830
238 409 316 516 531 730 539 538 1314 912 2029 978 22 2 852 3 1845 3 1628 -2
1815 -3 1906 -18z m-50007 -414 c112 -16 151 -31 175 -66 25 -35 20 -91 -9
-126 -33 -40 -65 -45 -155 -27 -41 8 -136 17 -210 21 -166 7 -176 9 -206 41
-29 31 -33 96 -8 132 31 43 68 52 194 46 63 -3 162 -13 219 -21z m636 -203
c341 -168 638 -433 868 -775 74 -110 83 -155 42 -204 -34 -40 -86 -52 -129
-28 -18 10 -52 49 -81 94 -206 317 -473 556 -810 728 -113 57 -121 63 -134
101 -12 34 -12 45 -1 73 15 37 63 70 100 70 14 0 80 -27 145 -59z m23457 -298
c31 -34 78 -53 133 -53 25 0 45 -3 45 -6 0 -3 -25 -62 -56 -132 -315 -711
-479 -1461 -460 -2112 19 -667 159 -1257 463 -1960 166 -382 484 -934 733
-1269 58 -78 60 -83 60 -142 l0 -61 -27 7 c-75 19 -240 55 -253 55 -12 0 -212
288 -322 465 -93 150 -256 449 -343 632 l-63 131 44 32 c66 50 85 120 50 188
-29 57 -116 80 -178 48 l-26 -14 -37 97 c-167 431 -290 913 -340 1331 -65 549
-26 1137 115 1700 92 369 202 676 409 1142 l16 37 7 -46 c4 -26 17 -56 30 -70z
m2199 -24 c266 -591 437 -1210 491 -1784 19 -200 16 -708 -5 -890 -29 -246
-88 -563 -148 -785 -61 -230 -222 -697 -248 -723 -5 -5 -26 2 -47 17 -58 39
-123 37 -170 -7 -28 -26 -37 -42 -41 -77 -7 -65 8 -93 81 -150 53 -42 64 -55
56 -68 -5 -9 -45 -90 -89 -179 -155 -314 -369 -672 -566 -948 l-29 -41 -139
-27 c-76 -15 -144 -29 -150 -30 -8 -1 -13 16 -15 46 -3 44 1 54 46 115 91 124
261 382 359 545 406 681 676 1377 787 2032 43 255 57 410 63 685 7 340 -16
591 -88 960 -68 350 -229 841 -388 1184 -22 49 -41 90 -41 92 0 2 19 4 43 4
106 0 167 48 167 131 1 53 2 52 71 -102z m-21288 -510 c12 -7 87 -66 166 -133
231 -193 691 -578 878 -735 184 -153 210 -186 200 -248 -16 -95 -117 -150
-194 -106 -17 10 -251 203 -519 428 -268 226 -521 438 -562 473 l-74 62 -1257
0 c-1227 0 -1257 1 -1288 20 -45 27 -66 64 -66 115 0 51 21 88 66 115 31 19
61 20 1330 20 955 0 1304 -3 1320 -11z m-4445 -231 c448 -220 749 -1391 489
-1904 -105 -208 -322 -264 -514 -133 -379 259 -642 1201 -486 1739 52 180 151
297 278 331 61 16 161 2 233 -33z m29368 -31 c99 -50 154 -142 154 -255 -1
-102 -22 -138 -168 -285 -138 -140 -177 -166 -257 -174 l-53 -6 -6 -51 c-4
-29 -17 -73 -29 -98 -29 -61 -377 -417 -438 -448 -23 -12 -68 -25 -100 -27
l-56 -6 -6 -63 c-3 -43 -13 -77 -30 -106 -14 -24 -105 -125 -202 -225 -186
-193 -230 -225 -327 -238 -46 -7 -46 -7 -53 -53 -13 -95 -44 -138 -235 -335
-197 -203 -237 -232 -334 -243 l-56 -7 0 -46 c0 -79 -37 -140 -167 -272 -140
-143 -189 -172 -291 -172 -161 1 -282 118 -282 273 0 115 18 148 158 292 133
136 185 171 275 184 26 3 47 10 47 15 0 5 -4 9 -10 9 -14 0 -12 33 3 49 10 11
9 12 -3 5 -11 -6 -11 -2 3 16 16 23 50 88 51 100 1 3 7 12 14 20 19 21 79 111
94 139 7 14 21 34 31 45 9 12 46 58 80 102 63 81 129 158 219 257 26 29 43 54
37 55 -5 2 -9 8 -9 13 0 16 98 109 115 109 10 0 26 7 35 15 9 8 48 19 86 23
67 7 70 9 118 60 42 45 46 52 27 52 -35 0 -34 2 91 118 l67 62 -34 0 -35 0 73
68 c40 37 100 90 132 117 33 28 62 52 65 55 5 5 174 145 212 175 9 7 26 19 38
25 11 6 58 43 103 82 45 39 105 82 134 95 29 14 53 30 53 35 0 5 4 7 8 4 17
-10 72 33 72 56 0 57 48 123 181 254 109 106 143 133 184 147 69 23 156 17
221 -16z m-9408 -52 c31 -17 100 -78 175 -154 142 -145 162 -183 155 -296 -4
-61 -3 -64 27 -81 19 -12 53 -19 96 -20 117 -2 144 -22 410 -285 262 -259 280
-285 287 -399 2 -36 8 -70 13 -76 5 -6 46 -14 90 -17 68 -4 85 -9 108 -30 14
-14 36 -28 48 -31 26 -8 463 -447 509 -512 19 -26 38 -71 45 -103 7 -31 15
-58 18 -61 4 -3 23 -31 44 -62 33 -51 41 -58 70 -58 18 0 58 -7 87 -16 48 -14
70 -32 187 -147 159 -156 189 -204 187 -307 -1 -115 -55 -200 -159 -251 -59
-29 -71 -31 -137 -27 -49 3 -88 12 -118 28 -57 29 -280 251 -306 305 -26 54
-27 204 -1 254 9 19 16 36 14 38 -2 2 -25 -6 -51 -18 -68 -30 -160 -28 -234 6
-45 21 -99 68 -283 251 -254 253 -279 287 -286 393 -5 59 -9 70 -41 104 -27
28 -44 37 -69 37 -32 0 -33 -1 -33 -40 l0 -40 -50 53 c-27 29 -59 53 -71 54
-14 1 -51 33 -98 85 -41 46 -150 157 -243 248 -179 176 -218 232 -218 313 0
25 -9 50 -30 79 -16 22 -30 47 -30 55 0 9 -14 13 -48 13 -27 0 -73 7 -102 16
-48 14 -70 32 -192 152 -84 82 -146 152 -159 178 -73 151 3 329 168 390 59 22
159 13 221 -21z m4853 -63 c478 -126 777 -598 679 -1072 -39 -193 -120 -346
-250 -478 -175 -175 -369 -260 -621 -269 -217 -9 -380 36 -553 151 -231 154
-371 389 -406 681 -55 464 280 911 748 1000 104 20 302 13 403 -13z m-14804
-43 c42 -16 72 -48 104 -111 145 -287 8 -666 -321 -888 -180 -122 -481 -191
-770 -176 -149 7 -237 21 -515 80 -367 79 -564 94 -742 57 -104 -22 -221 -78
-296 -142 -48 -42 -111 -139 -141 -220 -17 -45 -17 -47 5 -88 49 -95 -24 -208
-129 -198 -145 15 -205 177 -136 367 100 279 312 467 610 542 79 20 113 23
299 22 232 -1 268 -6 657 -89 270 -58 426 -73 585 -57 140 14 284 51 362 92
194 104 339 321 317 478 -3 25 -20 76 -37 114 -25 53 -31 76 -26 109 6 46 36
85 82 105 37 16 56 17 92 3z m-11742 -188 c144 -67 257 -197 370 -426 106
-214 173 -428 211 -675 19 -127 26 -397 13 -500 -32 -254 -123 -422 -262 -485
-51 -24 -68 -27 -140 -24 -69 3 -94 10 -149 37 -205 101 -401 427 -507 843
-118 463 -95 913 57 1117 109 145 251 185 407 113z m-2228 -507 c54 -34 76
-109 49 -166 -12 -24 -83 -91 -219 -204 -778 -652 -1197 -1007 -1197 -1014 0
-4 63 -365 140 -801 283 -1599 320 -1813 320 -1852 0 -75 -53 -127 -130 -127
-53 0 -96 22 -116 61 -18 35 -494 2717 -494 2783 0 29 8 54 23 74 12 17 211
189 442 383 231 193 554 464 719 602 164 139 315 260 335 270 40 19 90 16 128
-9z m10788 -215 c107 -13 152 -32 183 -79 42 -62 17 -151 -50 -186 -29 -15
-45 -15 -148 -5 -63 7 -139 14 -169 17 l-53 4 24 -29 c15 -17 30 -54 37 -91
23 -115 78 -213 181 -324 53 -56 63 -73 68 -111 8 -78 -31 -133 -105 -150 -54
-11 -96 11 -166 85 -138 145 -228 319 -245 469 l-7 64 -367 -474 c-223 -290
-376 -480 -393 -487 -14 -7 -46 -12 -71 -12 -37 0 -51 6 -82 34 -35 32 -37 38
-37 93 l0 58 309 400 c170 220 361 466 423 547 63 81 123 153 135 159 12 6 44
15 72 19 79 12 361 11 461 -1z m19856 -55 c181 -34 447 -109 496 -141 27 -18
53 -72 53 -113 0 -69 -61 -130 -130 -130 -19 0 -83 16 -143 35 -59 19 -171 48
-250 65 -78 17 -158 35 -177 40 -111 30 -134 181 -37 240 39 24 79 25 188 4z
m-4142 -12 c37 -20 71 -73 71 -110 0 -34 -24 -84 -53 -110 -18 -17 -56 -30
-139 -48 -151 -32 -323 -85 -492 -151 -151 -59 -179 -62 -230 -22 -75 59 -72
171 6 219 89 55 412 165 628 215 128 29 165 30 209 7z m-17429 -117 c265 -33
588 -116 640 -165 57 -53 57 -140 1 -194 -45 -43 -88 -43 -221 -3 -139 42
-265 70 -425 94 -166 24 -605 24 -790 0 -665 -88 -1189 -277 -1695 -612 -219
-146 -349 -252 -556 -459 -306 -305 -510 -588 -698 -963 -167 -333 -277 -675
-342 -1061 -14 -86 -30 -165 -36 -175 -15 -29 -70 -57 -113 -57 -50 0 -99 29
-121 72 -15 29 -15 43 -4 133 50 419 226 950 448 1350 478 865 1244 1511 2168
1828 341 117 734 198 1096 227 153 12 495 4 648 -15z m3514 -90 c20 -13 230
-188 467 -387 325 -272 435 -370 446 -396 14 -33 7 -75 -107 -726 -67 -380
-135 -765 -151 -856 -28 -167 -205 -1167 -259 -1470 -16 -91 -61 -347 -100
-570 -139 -793 -159 -901 -174 -922 -55 -79 -177 -76 -226 5 -24 38 -25 78 -6
183 18 98 64 355 161 909 41 237 86 491 100 565 13 74 61 342 105 595 44 253
93 534 110 625 16 91 66 374 110 630 45 256 90 510 100 565 35 180 61 348 56
360 -2 7 -181 161 -398 342 -216 182 -404 342 -417 356 -31 34 -39 102 -17
146 37 70 132 92 200 46z m-960 -150 c94 -45 252 -341 306 -575 26 -113 29
-269 6 -324 -8 -19 -97 -142 -198 -273 -101 -131 -288 -373 -416 -539 -131
-170 -243 -306 -258 -312 -14 -7 -46 -12 -71 -12 -39 0 -50 5 -84 39 -35 35
-39 44 -39 89 0 46 5 58 52 119 100 130 423 549 540 700 65 83 118 154 118
157 0 3 -12 6 -27 6 -85 0 -484 136 -565 192 -14 10 -34 38 -44 63 -16 42 -16
48 0 90 31 81 113 106 206 64 95 -44 226 -90 353 -124 84 -23 141 -44 156 -58
l24 -22 -8 49 c-18 124 -98 310 -180 421 -25 33 -50 75 -56 93 -19 57 7 118
64 152 39 24 78 25 121 5z m20620 -403 c67 -46 334 -311 417 -414 138 -172
149 -190 706 -1148 88 -151 231 -396 318 -544 86 -148 162 -282 167 -298 24
-67 -22 -149 -94 -169 -33 -9 -49 -7 -84 6 -51 19 -47 14 -294 440 -151 260
-342 588 -669 1145 -198 337 -316 486 -552 697 -83 75 -122 116 -130 140 -31
95 49 192 146 177 16 -2 47 -17 69 -32z m-7481 -126 c42 -17 63 -42 75 -88 17
-64 1 -93 -129 -233 -199 -214 -204 -222 -541 -797 -252 -432 -269 -461 -561
-963 -99 -170 -189 -320 -200 -333 -35 -38 -88 -48 -142 -27 -71 26 -105 96
-82 164 7 20 78 146 157 281 79 135 184 315 233 400 733 1258 716 1232 952
1479 125 130 163 149 238 117z m-16370 -84 c29 -29 32 -38 32 -93 0 -56 -2
-63 -35 -93 -33 -30 -45 -34 -160 -50 -224 -31 -412 -81 -688 -180 -63 -23
-79 -25 -112 -16 -41 11 -86 56 -96 96 -9 35 3 88 26 117 64 81 721 261 928
254 67 -2 74 -5 105 -35z m-7966 -287 c32 -21 63 -73 63 -106 0 -67 -17 -86
-269 -296 -135 -113 -254 -214 -264 -223 -18 -16 -16 -29 43 -366 34 -192 72
-409 86 -482 34 -191 33 -215 -15 -263 -34 -34 -44 -39 -85 -39 -55 0 -96 19
-120 54 -18 28 -206 1068 -206 1139 0 52 20 81 98 147 36 30 167 140 292 244
124 103 239 195 255 202 35 16 87 12 122 -11z m6790 -55 c45 -27 66 -64 66
-115 0 -55 -22 -89 -80 -123 -409 -242 -733 -544 -985 -921 -146 -216 -291
-530 -363 -783 -42 -147 -51 -166 -90 -190 -85 -52 -205 12 -205 110 0 70 112
406 198 593 56 122 173 328 256 449 264 389 631 731 1023 955 88 50 130 56
180 25z m-2206 -59 c33 -36 49 -106 49 -218 0 -263 -159 -466 -396 -504 -91
-15 -178 -1 -294 48 -245 101 -310 119 -387 103 -67 -14 -133 -59 -259 -177
-125 -117 -201 -174 -289 -219 -96 -48 -164 -64 -271 -64 -121 0 -204 23 -415
116 -321 141 -416 145 -567 25 -62 -49 -105 -60 -150 -37 -40 20 -52 44 -52
97 0 39 5 48 55 96 65 60 170 116 252 133 79 17 221 7 308 -20 39 -12 146 -56
238 -96 196 -87 275 -108 365 -100 113 10 202 63 382 230 190 176 279 225 425
233 106 6 182 -12 364 -90 139 -59 150 -62 228 -62 74 0 85 3 125 30 86 61
139 184 124 292 -19 147 -19 147 4 176 13 16 32 33 44 38 36 15 89 2 117 -30z
m6813 -416 c22 -11 52 -45 93 -108 287 -434 498 -970 588 -1497 32 -184 46
-347 52 -587 11 -470 -48 -867 -197 -1314 -87 -263 -118 -332 -162 -359 -47
-30 -118 -23 -159 16 -38 36 -55 92 -41 131 6 15 31 82 57 148 94 244 172 558
211 845 22 168 30 610 14 778 -55 584 -248 1153 -554 1637 -70 110 -89 150
-93 185 -10 102 95 170 191 125z m17355 -375 c94 -48 93 -188 -3 -234 -32 -15
-92 -16 -650 -14 l-615 3 -30 29 c-56 54 -63 125 -19 182 43 54 35 53 681 54
573 0 599 -1 636 -20z m-1739 -112 c64 -44 65 -128 3 -175 -359 -276 -850
-857 -1170 -1385 -51 -84 -91 -154 -89 -155 1 -2 36 11 77 28 195 81 497 169
699 203 294 49 773 50 1104 1 147 -22 319 -65 334 -83 14 -18 17 -179 3 -200
-7 -11 -21 -10 -77 7 -336 101 -911 129 -1314 65 -260 -41 -600 -153 -899
-295 -132 -63 -155 -68 -201 -44 -65 34 -67 99 -6 245 79 192 77 188 240 435
325 491 703 948 1007 1216 184 162 224 181 289 137z m2259 7 c78 -40 293 -236
460 -418 216 -238 336 -387 630 -787 30 -41 71 -92 90 -112 95 -104 269 -415
288 -516 4 -20 7 -65 8 -99 0 -54 -4 -66 -26 -88 -45 -45 -83 -43 -195 10
-220 105 -530 217 -739 269 -414 102 -992 101 -1419 -3 l-114 -28 -6 53 c-3
28 -3 79 0 112 l7 59 96 22 c127 28 257 48 414 62 170 15 662 6 816 -15 129
-19 400 -75 511 -107 41 -11 85 -23 97 -25 12 -2 56 -17 98 -33 41 -16 75 -27
75 -24 0 2 -23 43 -52 91 -28 48 -72 128 -98 178 -54 106 -79 142 -219 329
-245 326 -618 730 -789 855 -56 41 -74 61 -83 89 -27 92 66 170 150 126z
m-1080 -371 l31 -35 -2 -849 -3 -850 -26 -26 c-58 -57 -157 -34 -178 43 -7 25
-11 310 -11 846 0 869 -1 854 51 891 13 9 42 16 65 16 35 0 47 -5 73 -36z
m-26939 -454 c168 -15 396 -55 550 -96 74 -20 155 -40 180 -44 25 -5 275 -66
555 -135 472 -117 1995 -490 2040 -500 11 -2 29 -6 40 -9 11 -2 61 -14 110
-25 50 -11 249 -59 444 -106 195 -47 356 -84 358 -81 2 2 -9 7 -26 11 -44 9
-46 20 -12 62 33 43 168 262 226 368 47 86 69 111 119 137 85 44 109 40 636
-92 507 -126 546 -140 594 -203 37 -49 44 -93 56 -357 7 -135 15 -262 20 -282
5 -27 4 -38 -4 -38 -6 0 -60 13 -121 28 l-110 28 -1 80 c-4 294 -9 405 -18
413 -14 11 -900 231 -931 231 -19 0 -35 -22 -99 -134 -42 -73 -93 -167 -113
-209 -22 -45 -44 -77 -53 -77 -8 0 -40 7 -70 15 -30 8 -62 15 -70 14 -8 0 210
-56 485 -125 750 -187 1605 -404 1650 -419 22 -7 54 -16 70 -19 17 -3 163 -40
325 -81 429 -110 2547 -641 2670 -670 433 -102 855 -291 1200 -539 195 -140
440 -367 611 -566 163 -190 382 -506 471 -680 95 -185 113 -214 145 -222 20
-5 35 -19 46 -43 10 -22 24 -35 36 -35 13 0 20 -9 25 -31 10 -51 7 -59 -17
-59 -21 0 -23 -4 -21 -35 2 -20 -1 -35 -8 -35 -7 0 -7 -4 0 -12 5 -7 6 -22 2
-33 -4 -11 -4 -33 1 -50 4 -16 10 -48 13 -70 3 -22 14 -92 25 -155 11 -63 23
-144 26 -180 3 -36 10 -110 15 -165 21 -229 10 -566 -26 -815 -109 -749 -502
-1479 -1067 -1977 -444 -392 -955 -651 -1522 -773 -379 -81 -833 -92 -1219
-29 -594 97 -1169 362 -1615 745 -141 121 -337 323 -445 459 -48 61 -137 184
-198 275 -60 91 -115 168 -121 171 -7 4 -75 21 -152 39 -77 17 -232 54 -345
80 -113 27 -266 63 -340 81 -74 17 -197 46 -274 65 -76 19 -142 31 -147 28 -5
-3 -9 0 -9 5 0 6 -10 10 -22 10 -30 -1 -89 11 -109 22 -9 4 -18 6 -20 4 -3 -2
-47 7 -99 20 -250 62 -1495 378 -1645 418 -93 25 -332 86 -530 137 -198 50
-396 103 -440 116 -44 13 -91 26 -105 28 -14 3 -40 9 -58 15 -29 9 -39 5 -100
-31 -388 -237 -853 -398 -1337 -464 -180 -25 -606 -25 -790 -1 -797 106 -1467
442 -2015 1013 -162 168 -329 368 -442 529 -26 37 -49 57 -72 65 -46 15 -90
66 -131 154 -32 70 -65 176 -63 206 1 8 0 39 0 68 -2 39 -6 52 -17 52 -10 0
-15 10 -15 33 0 18 -18 102 -39 187 -40 156 -89 420 -112 605 -17 136 -17 590
-1 730 90 738 382 1383 860 1895 584 627 1335 990 2197 1063 95 8 409 6 515
-3z m30149 -304 c95 -4 121 -9 165 -30 29 -14 63 -37 76 -51 l23 -25 34 25
c64 50 104 57 283 56 364 -3 445 -16 527 -85 l31 -26 25 20 c14 12 48 30 74
42 46 20 57 21 298 14 137 -4 266 -9 285 -12 53 -8 121 -41 157 -76 l32 -31
36 31 c65 58 111 64 386 52 134 -5 260 -13 279 -16 46 -8 99 -36 139 -73 l33
-31 33 29 c66 57 105 65 308 58 176 -6 183 -7 244 -37 104 -51 153 -131 154
-252 1 -85 -15 -130 -68 -189 -76 -84 -140 -100 -363 -90 -182 9 -241 25 -295
81 l-27 29 -50 -35 c-81 -55 -102 -58 -398 -45 -171 7 -279 15 -305 24 -32 11
-52 11 -119 1 -45 -7 -108 -15 -141 -18 -33 -3 -118 -11 -190 -18 -206 -20
-1004 -17 -1230 5 -210 20 -455 54 -489 67 -13 5 -87 10 -165 11 -78 1 -141 6
-141 11 0 4 -3 7 -7 6 -17 -4 -83 13 -83 22 0 5 -12 13 -27 17 -35 9 -40 10
-55 12 -6 0 -8 4 -4 8 3 4 -6 12 -21 19 -26 11 -23 13 42 14 39 1 76 2 83 1 9
-2 7 7 -7 26 -28 38 -61 138 -61 183 0 63 28 134 71 184 67 76 145 106 259
100 30 -2 106 -6 169 -8z m-7699 -149 c484 -3 470 -1 550 -74 47 -41 90 -121
90 -165 0 -45 26 -34 34 13 14 85 79 169 165 211 43 22 58 23 251 23 229 0
238 -2 313 -74 58 -54 80 -104 85 -192 3 -61 0 -85 -15 -120 -29 -65 -77 -114
-141 -146 -55 -27 -63 -28 -239 -31 -220 -5 -255 4 -338 80 -54 49 -56 50
-102 43 -38 -6 -54 -14 -80 -45 -38 -44 -98 -76 -168 -89 -28 -5 -198 -10
-380 -12 -302 -2 -333 -1 -370 16 -60 28 -296 23 -363 -8 -44 -19 -73 -22
-399 -30 -308 -8 -358 -7 -395 6 -158 57 -213 80 -235 97 l-24 19 -34 -38
c-19 -20 -58 -50 -87 -67 l-53 -29 -210 0 c-189 0 -214 2 -250 20 -171 85
-211 315 -77 452 73 76 110 86 313 91 214 5 261 -5 335 -71 27 -24 56 -43 64
-41 64 10 121 33 154 61 53 45 103 58 336 90 14 2 108 6 210 9 102 3 186 7
187 8 1 1 100 1 220 -1 120 -2 414 -4 653 -6z m4569 -543 c-20 -22 -25 -23
-27 -9 -4 19 13 35 37 35 10 0 7 -8 -10 -26z m-294 -5 c11 -17 -1 -21 -15 -4
-8 9 -8 15 -2 15 6 0 14 -5 17 -11z m6006 -52 c24 -16 68 -80 156 -229 128
-217 247 -421 320 -551 36 -62 52 -80 81 -93 20 -8 49 -28 64 -45 15 -16 37
-29 50 -29 16 0 35 -17 66 -59 47 -65 49 -71 27 -71 -11 0 -4 -15 23 -52 75
-102 225 -327 239 -358 3 -8 19 -33 34 -55 38 -57 119 -193 119 -202 0 -5 9
-19 20 -33 25 -32 25 -50 2 -50 -32 0 -31 -10 9 -80 21 -38 39 -74 39 -80 0
-5 -11 -10 -25 -10 -14 0 -25 -3 -25 -6 0 -17 42 -72 59 -77 12 -3 22 -21 30
-53 11 -45 191 -376 211 -389 4 -3 11 17 15 45 4 27 11 50 16 50 5 0 9 -3 10
-7 2 -27 11 -49 37 -105 27 -56 37 -81 68 -163 4 -11 6 -23 6 -27 -1 -5 2 -8
7 -8 8 0 33 -74 32 -93 -2 -13 76 -159 169 -317 252 -430 347 -726 381 -1190
44 -602 -106 -1224 -408 -1690 -77 -118 -150 -208 -184 -225 -33 -17 -92 -20
-120 -5 -24 13 -24 13 1 -142 33 -212 44 -374 45 -668 0 -217 -5 -318 -18
-425 -104 -799 -424 -1389 -940 -1729 -597 -393 -1391 -358 -2163 95 -450 263
-882 672 -1233 1165 -66 94 -113 170 -117 191 -15 81 49 153 136 153 63 0 83
-17 176 -153 642 -935 1597 -1517 2376 -1447 183 16 420 81 472 129 12 10 41
29 66 42 45 23 51 25 80 32 8 1 24 8 35 14 17 10 13 13 -34 19 l-53 7 31 13
c17 7 58 16 92 20 76 8 137 52 268 190 234 248 405 596 492 1005 53 254 63
364 63 709 1 291 -2 330 -27 508 -65 455 -178 861 -352 1262 -49 113 -62 162
-80 305 -22 183 -34 418 -45 895 -12 520 -25 660 -86 904 -191 761 -706 1413
-1404 1775 -389 202 -760 296 -1215 308 -178 4 -235 2 -373 -16 -510 -66 -944
-241 -1345 -544 -71 -54 -141 -103 -154 -108 -13 -5 -121 -9 -238 -9 l-215 0
-2 -609 c-3 -599 -3 -610 -24 -638 -11 -15 -36 -36 -55 -46 -32 -16 -123 -17
-1596 -15 l-1562 3 -28 21 c-59 44 -58 35 -60 564 -1 267 -2 538 -2 602 l-1
117 -228 3 c-183 2 -232 6 -249 18 -11 8 -72 54 -134 101 -401 304 -883 495
-1384 548 -148 16 -519 6 -673 -18 -611 -94 -1143 -367 -1572 -807 -211 -217
-366 -437 -500 -709 -194 -395 -280 -770 -280 -1224 0 -250 -28 -888 -45
-1055 -21 -201 -27 -222 -107 -413 -176 -422 -302 -910 -349 -1353 -16 -150
-17 -595 -1 -735 69 -605 256 -1056 572 -1375 90 -91 186 -168 196 -157 6 6
158 -27 194 -42 21 -8 13 -10 -42 -10 -82 -1 -90 -22 -14 -35 33 -6 86 -29 86
-37 0 -6 4 -8 9 -5 4 3 21 -6 37 -20 42 -37 103 -62 233 -95 384 -98 803 -35
1251 187 181 90 404 233 575 370 238 190 590 570 766 826 55 81 97 118 132
118 32 0 131 -49 143 -71 25 -45 17 -91 -27 -159 -162 -251 -488 -618 -748
-843 -600 -518 -1277 -783 -1881 -737 -313 23 -569 110 -815 275 -290 194
-490 431 -660 780 -141 289 -226 596 -270 970 -33 284 -18 781 34 1095 10 63
17 116 16 118 -2 2 -12 -1 -23 -7 -31 -17 -94 -13 -125 8 -15 10 -55 53 -88
97 -221 288 -383 672 -458 1089 -22 127 -34 224 -46 395 -8 104 10 430 31 565
47 307 152 609 291 840 102 170 126 217 128 249 1 17 8 49 15 71 l15 40 5 -37
c5 -38 5 -38 84 99 86 149 74 110 132 437 12 67 29 116 72 205 56 113 58 116
92 119 83 6 96 11 113 47 l17 35 -25 0 c-14 0 -25 4 -25 9 0 10 49 104 77 149
15 25 10 42 -13 42 -24 0 -16 23 46 124 33 54 60 103 60 107 0 5 5 9 10 9 6 0
10 5 10 11 0 12 125 208 187 294 90 123 133 185 133 190 0 3 -9 5 -20 5 -18 0
-19 2 -5 18 9 9 29 34 46 55 20 23 40 37 54 37 15 0 32 11 45 30 19 27 26 30
78 30 l57 0 29 53 c16 28 53 93 81 142 282 484 283 485 363 485 87 0 150 -68
139 -149 -4 -28 -203 -389 -247 -446 -4 -5 -29 -50 -55 -100 -26 -49 -52 -94
-56 -100 -5 -5 -9 -16 -9 -25 0 -9 -9 -26 -20 -38 -31 -33 -88 -142 -115 -221
-14 -40 -34 -92 -45 -114 -10 -23 -22 -53 -25 -67 -4 -14 -24 -61 -45 -105
-20 -44 -52 -113 -70 -152 -30 -66 -37 -73 -62 -73 -31 0 -40 -11 -100 -130
-27 -53 -38 -66 -60 -68 -28 -3 -63 -45 -53 -62 3 -6 26 -10 51 -10 32 0 44
-4 44 -14 0 -8 -5 -18 -11 -22 -8 -4 -7 -9 2 -14 18 -12 -8 -69 -35 -80 -13
-5 -48 -54 -87 -121 -72 -125 -193 -323 -209 -342 -11 -13 -163 -234 -193
-280 -14 -22 -25 -27 -60 -27 l-42 0 -92 -153 c-111 -184 -124 -211 -117 -230
3 -10 -2 -18 -15 -22 -12 -3 -19 -10 -16 -15 3 -4 -1 -10 -9 -13 -21 -8 -131
-239 -175 -369 -48 -142 -85 -303 -107 -468 -13 -98 -15 -176 -11 -360 3 -129
7 -244 10 -255 3 -11 8 -45 12 -75 38 -294 161 -648 313 -899 47 -78 161 -235
167 -229 2 2 15 50 30 108 60 239 154 522 255 760 26 64 53 143 59 176 28 159
49 506 56 944 6 394 12 502 31 645 80 577 314 1101 691 1547 433 512 1031 868
1683 1002 215 44 367 59 610 60 311 1 547 -30 831 -108 353 -97 738 -290 1022
-512 l68 -53 827 6 c455 3 829 7 831 10 3 2 -1 9 -7 15 -9 9 -12 86 -12 275
l0 263 -221 -110 c-132 -66 -233 -110 -250 -110 -65 0 -119 53 -119 118 0 20
41 90 139 238 76 115 136 212 133 215 -4 3 -111 18 -238 32 -126 14 -242 31
-257 36 -33 13 -67 66 -67 106 0 72 12 80 365 234 211 92 339 143 361 143 93
0 143 -110 84 -185 -11 -13 -68 -45 -129 -72 -61 -27 -109 -51 -106 -53 3 -3
55 -11 116 -19 125 -15 162 -30 185 -75 25 -48 12 -86 -65 -202 -40 -58 -69
-106 -66 -106 3 0 55 25 115 55 134 67 167 70 216 21 19 -19 34 -45 35 -58 0
-12 0 -74 0 -135 0 -62 2 -113 4 -113 2 0 30 44 64 98 75 123 98 144 150 146
56 1 83 -23 153 -134 33 -52 63 -98 66 -102 4 -4 7 56 7 133 l0 141 33 29 c50
45 96 40 222 -21 56 -28 104 -49 106 -47 2 2 -23 43 -57 90 -79 114 -93 149
-79 191 19 59 49 76 152 92 51 8 105 14 120 14 55 0 35 19 -65 60 -56 23 -114
54 -129 68 -74 69 -22 192 80 192 16 0 173 -61 348 -135 348 -147 374 -163
374 -231 0 -49 -23 -89 -62 -106 -18 -9 -134 -28 -258 -43 -124 -15 -229 -31
-233 -35 -5 -4 25 -56 66 -116 223 -328 210 -305 204 -348 -4 -26 -16 -50 -36
-70 -53 -52 -83 -45 -330 72 -118 56 -216 102 -219 102 -3 0 -2 -114 2 -252 6
-218 5 -256 -8 -273 -9 -11 -16 -23 -16 -26 0 -3 342 -9 760 -12 l760 -6 112
84 c300 225 692 412 1048 499 281 68 457 89 750 90 241 0 342 -9 570 -50 628
-114 1233 -452 1666 -932 206 -227 353 -445 485 -717 118 -244 188 -449 243
-718 45 -217 56 -357 62 -737 5 -383 27 -811 49 -981 11 -86 23 -129 64 -225
105 -250 203 -543 258 -768 15 -64 30 -116 33 -116 13 0 149 198 206 300 172
309 267 652 295 1065 27 401 -51 827 -213 1153 -42 85 -54 102 -74 102 -13 0
-43 19 -71 45 -47 44 -47 44 -20 45 16 0 27 5 27 14 0 8 -12 24 -27 35 -27 20
-27 20 -5 21 12 0 22 2 22 5 0 4 -79 140 -231 395 l-69 115 0 -110 0 -110 -27
30 c-29 30 -113 142 -113 149 0 2 -33 53 -74 112 -40 60 -88 135 -107 167 -19
33 -43 73 -53 90 -10 18 -30 52 -44 77 -37 67 -70 108 -92 115 -11 3 -20 12
-20 19 0 7 -13 33 -30 59 -23 37 -26 47 -14 47 10 0 14 6 10 15 -4 12 4 15 42
15 66 0 74 8 52 49 -13 26 -28 38 -55 46 -35 9 -42 18 -77 87 -35 70 -41 78
-74 84 -33 6 -38 13 -74 88 -88 188 -211 489 -234 571 -23 86 -38 116 -63 126
-12 4 -23 15 -23 24 0 8 -4 15 -10 15 -14 0 -12 48 2 52 13 5 -15 68 -72 163
-20 33 -110 186 -200 340 -147 252 -163 285 -164 326 0 110 116 176 205 116z
m-1767 -2140 c377 -138 476 -626 182 -895 -296 -269 -781 -130 -881 253 -19
74 -19 203 0 274 49 185 205 339 391 386 86 21 220 13 308 -18z m-7931 -217
c142 -21 251 -100 314 -228 l38 -76 3 -267 3 -268 262 -3 c246 -3 266 -5 320
-27 113 -45 200 -136 238 -248 19 -57 20 -81 17 -335 -3 -272 -3 -273 -30
-330 -49 -104 -148 -190 -257 -222 -43 -13 -106 -16 -303 -16 l-248 0 0 -248
c0 -268 -6 -313 -56 -398 -31 -52 -108 -126 -162 -153 -84 -43 -144 -51 -369
-51 -117 0 -236 5 -265 11 -130 27 -236 110 -292 228 l-31 66 -3 273 -3 272
-253 0 c-286 0 -317 5 -412 69 -71 47 -127 119 -157 198 -19 52 -22 82 -25
290 -2 146 1 252 8 286 28 135 111 240 238 300 l67 32 267 3 267 3 3 272 c3
272 3 272 30 330 57 121 184 217 313 236 84 12 396 13 478 1z m6843 -771 c197
-36 372 -203 419 -401 67 -283 -114 -576 -396 -643 -335 -79 -659 177 -659
520 0 145 50 266 155 370 135 136 297 188 481 154z m2086 -18 c232 -81 385
-311 363 -547 -27 -295 -274 -509 -565 -491 -287 18 -502 246 -502 532 0 249
165 458 409 520 77 19 219 13 295 -14z m-1047 -996 c282 -74 457 -365 387
-643 -12 -46 -35 -107 -52 -136 -174 -304 -581 -367 -832 -129 -112 108 -168
235 -168 386 0 131 30 220 116 338 59 81 187 161 300 188 62 14 185 12 249 -4z
m-2706 -131 c152 -34 313 -157 386 -295 128 -244 88 -518 -104 -710 -75 -76
-130 -110 -241 -153 -55 -21 -58 -21 -1377 -24 -1469 -3 -1400 -6 -1542 64
-100 49 -205 153 -254 250 -55 109 -71 175 -70 289 1 173 65 320 192 437 58
54 161 115 236 139 57 18 785 27 1850 22 698 -4 872 -7 924 -19z m-3828 -1010
c342 -59 632 -250 840 -554 24 -36 61 -87 81 -114 20 -28 47 -77 59 -111 27
-73 35 -83 44 -57 3 12 21 30 39 42 31 19 49 20 282 20 137 1 429 6 649 12
445 12 458 12 1020 -1 220 -6 432 -9 471 -8 49 1 77 -3 94 -14 21 -14 25 -14
44 5 12 12 40 37 62 56 22 19 57 66 79 104 21 39 48 79 60 90 12 12 50 54 85
94 76 90 220 210 326 274 302 182 703 229 1032 122 245 -80 466 -239 623 -447
108 -143 199 -358 230 -546 14 -85 14 -307 0 -392 -101 -605 -622 -1049 -1230
-1049 -602 0 -1120 429 -1226 1015 -9 50 -25 126 -35 170 -11 44 -17 103 -15
130 11 161 13 155 -34 131 -28 -15 -120 -17 -1051 -26 -102 -1 -466 2 -810 6
-471 7 -630 12 -647 22 -22 12 -22 12 -20 -60 4 -134 -32 -382 -75 -518 -163
-517 -646 -870 -1188 -870 -463 0 -893 260 -1103 667 -102 198 -149 398 -150
648 -2 285 17 394 81 465 9 10 33 42 52 70 163 239 335 396 555 505 194 96
346 133 556 134 74 1 164 -6 220 -15z m-25934 -424 c17 -10 37 -29 44 -42 7
-13 88 -450 180 -972 92 -521 171 -952 176 -956 7 -8 670 -249 1698 -619 575
-207 582 -210 635 -220 86 -17 436 -114 500 -138 8 -3 20 -7 25 -9 48 -12 364
-129 430 -159 17 -8 53 -23 80 -35 113 -49 142 -62 185 -85 25 -14 44 -28 43
-33 -1 -5 60 -32 135 -60 384 -143 515 -191 712 -262 118 -43 382 -139 586
-213 l370 -136 175 63 c95 34 336 122 534 194 198 72 572 208 830 302 259 94
916 333 1460 531 545 198 1062 387 1150 419 798 292 803 293 859 249 65 -51
74 -146 19 -200 -28 -28 -149 -75 -893 -344 -96 -34 -571 -207 -1055 -383
-484 -176 -1370 -498 -1968 -716 -598 -218 -1098 -396 -1111 -396 -13 0 -174
54 -357 121 -1151 417 -1467 529 -1490 529 -11 0 -19 4 -19 9 0 4 -60 29 -132
54 -96 34 -155 48 -213 53 -94 7 -217 36 -433 104 -87 26 -195 55 -242 64 -96
18 -378 126 -397 153 -7 9 -13 29 -13 45 0 15 -4 28 -10 28 -5 0 -38 18 -74
39 l-64 39 -8 -39 c-9 -38 -10 -39 -34 -26 -104 55 -202 117 -230 146 -23 24
-53 39 -143 72 -175 65 -1265 466 -1496 550 -135 49 -251 95 -258 101 -8 6
-21 24 -29 40 -14 28 -364 1980 -364 2033 0 96 121 158 207 105z m1212 -157
l37 -38 58 -330 c32 -181 59 -331 60 -332 3 -3 765 -279 1233 -447 194 -69
377 -131 405 -136 29 -6 78 -17 108 -25 30 -8 93 -24 140 -35 140 -33 584
-174 608 -193 6 -5 12 -7 12 -4 0 3 24 -5 53 -18 28 -14 58 -25 65 -25 7 0 37
-11 65 -24 29 -14 79 -35 112 -47 33 -12 67 -27 75 -33 8 -7 53 -29 99 -50 47
-21 102 -49 123 -62 20 -13 42 -24 48 -24 5 0 10 -4 10 -8 0 -5 17 -16 38 -25
52 -23 620 -234 958 -356 l280 -102 305 110 c167 60 396 143 509 184 1212 444
1529 557 1560 557 101 0 164 -119 110 -207 -24 -40 -23 -40 -236 -117 -392
-141 -1118 -405 -1651 -600 -320 -117 -577 -206 -597 -206 -18 0 -78 16 -132
36 -1101 401 -1502 543 -1569 555 -33 5 -116 23 -185 39 -69 16 -159 31 -200
35 -104 9 -316 74 -600 183 -182 70 -481 208 -500 231 -3 3 -12 7 -20 9 -16 3
-56 30 -125 81 -77 58 -18 34 -825 331 -402 147 -469 175 -495 203 -29 31 -32
44 -99 422 l-69 391 18 38 c24 50 67 76 129 76 43 0 53 -4 85 -37z"/>
<path d="M20570 24012 c-150 -144 -212 -200 -236 -212 -16 -8 -41 -22 -56 -32
-14 -10 -33 -18 -42 -18 -9 0 -16 -4 -16 -9 0 -5 -8 -8 -17 -7 -12 2 -51 -43
-127 -148 -60 -83 -120 -168 -134 -189 -45 -67 -66 -74 -257 -81 -117 -5 -190
-13 -235 -25 -143 -41 -184 -46 -355 -45 -150 1 -181 4 -267 27 -160 44 -160
38 5 -144 78 -86 236 -256 350 -379 115 -122 216 -238 225 -256 15 -33 14 -48
-30 -347 -26 -171 -45 -313 -44 -315 2 -1 160 149 352 334 192 185 362 343
378 351 19 10 45 13 74 10 53 -6 29 17 524 -495 199 -205 363 -370 365 -368 2
2 -30 209 -71 460 -42 251 -76 475 -76 498 0 54 27 100 71 120 31 14 195 86
517 223 61 27 112 52 112 56 0 4 -91 9 -202 11 l-203 4 -99 37 c-54 20 -125
52 -158 72 -37 21 -72 35 -93 35 -24 0 -45 9 -70 31 -38 33 -75 82 -79 102 -1
7 -10 30 -20 52 -12 26 -21 86 -27 175 -11 154 -39 484 -42 486 -1 0 -9 -6
-17 -14z"/>
<path d="M34704 23977 c-182 -234 -379 -527 -526 -782 -84 -145 -168 -300
-168 -309 0 -3 347 -6 770 -6 564 0 770 3 770 11 0 24 -190 355 -322 563 -143
224 -428 617 -447 616 -3 -1 -38 -42 -77 -93z"/>
<path d="M55910 23352 c-445 -32 -969 -231 -1420 -540 -280 -191 -564 -466
-718 -695 -39 -56 -664 -1120 -980 -1667 -30 -52 -172 -295 -315 -540 -143
-245 -316 -542 -385 -660 -68 -118 -210 -361 -315 -540 -105 -179 -230 -392
-278 -475 -48 -82 -205 -352 -350 -600 -144 -247 -308 -529 -364 -625 -56 -96
-182 -312 -280 -480 -212 -362 -271 -476 -324 -631 -198 -580 -147 -1295 131
-1853 58 -118 137 -247 194 -317 16 -20 369 -337 784 -705 415 -367 1054 -933
1420 -1257 366 -324 673 -604 682 -621 9 -17 17 -44 18 -59 0 -32 -33 -103
-52 -110 -7 -3 1946 -6 4341 -6 l4354 -1 -20 23 c-46 49 -55 104 -28 157 14
26 474 437 2155 1924 366 323 681 605 701 626 135 146 294 462 373 742 75 267
96 435 91 738 -4 290 -32 471 -107 700 -62 190 -100 260 -923 1665 -87 149
-229 392 -315 540 -86 149 -244 418 -350 600 -106 181 -263 451 -350 600 -188
323 -650 1116 -910 1560 -103 176 -270 462 -370 635 -361 621 -362 623 -479
770 -185 233 -478 484 -776 665 -344 209 -702 347 -1082 417 l-118 22 -1800 0
c-990 1 -1816 0 -1835 -2z m3455 -392 c788 -73 1629 -547 2104 -1187 42 -56
191 -299 331 -540 259 -445 498 -855 620 -1063 37 -63 92 -158 123 -210 219
-380 350 -604 632 -1085 624 -1062 1539 -2642 1576 -2720 285 -602 271 -1431
-36 -2071 -113 -237 -210 -371 -372 -514 -65 -58 -433 -384 -818 -725 -385
-341 -721 -638 -746 -660 -25 -22 -317 -281 -648 -575 -332 -294 -613 -540
-625 -547 -28 -16 -94 -16 -126 0 -13 7 -35 28 -48 47 -19 28 -23 44 -19 83 2
27 12 56 23 68 16 19 1651 1469 2599 2307 364 322 408 372 520 597 78 158 116
259 160 430 52 202 68 340 68 575 1 349 -61 646 -186 895 -23 47 -1638 2819
-2960 5082 -277 474 -325 543 -512 728 -435 433 -1078 753 -1637 814 -144 16
-1296 15 -1280 -1 15 -15 15 -59 -1 -78 -29 -37 -224 -88 -341 -90 -57 0 -18
-10 85 -21 197 -20 389 -74 552 -155 48 -24 102 -57 120 -73 17 -16 77 -62
132 -104 180 -134 328 -290 430 -451 111 -174 201 -410 236 -617 18 -107 21
-150 16 -319 -7 -269 -45 -430 -153 -659 -224 -474 -655 -808 -1177 -913 -95
-19 -142 -23 -317 -22 -174 0 -221 4 -310 23 -343 73 -604 214 -846 455 -199
200 -318 393 -404 654 -61 187 -75 286 -75 517 0 247 29 433 102 660 9 27 12
50 7 52 -31 11 -33 19 -18 71 15 49 19 53 74 78 45 21 67 40 99 83 22 31 78
94 123 141 83 85 105 104 268 232 47 37 102 82 122 100 51 45 219 128 348 171
121 40 235 65 353 76 l82 8 -95 2 c-193 5 -395 37 -469 76 -45 23 -64 50 -52
74 6 11 19 25 29 31 12 7 -138 9 -513 7 -487 -4 -539 -6 -640 -25 -559 -107
-1093 -390 -1501 -796 -230 -229 -211 -199 -882 -1351 -96 -165 -269 -462
-385 -660 -116 -198 -256 -439 -312 -535 -56 -96 -495 -850 -977 -1675 -481
-825 -896 -1541 -921 -1591 -126 -251 -186 -537 -187 -884 0 -395 72 -710 236
-1030 114 -221 150 -262 488 -561 166 -146 603 -533 971 -860 369 -327 879
-778 1133 -1003 507 -449 499 -440 473 -525 -17 -60 -61 -91 -126 -91 -44 0
-60 5 -87 27 -18 15 -285 251 -592 523 -308 272 -940 832 -1405 1243 -465 412
-863 770 -885 795 -238 288 -400 697 -462 1172 -21 159 -15 554 10 700 36 208
101 423 178 590 19 41 279 494 578 1005 299 512 631 1081 738 1265 107 184
280 481 385 660 105 179 229 393 277 475 48 83 190 326 315 540 125 215 379
649 563 965 184 316 355 604 380 640 197 283 445 521 767 735 438 292 911 471
1360 514 132 12 3225 13 3360 1z m-1960 -3779 l100 -18 2 -1799 c3 -1789 3
-1799 -17 -1832 -39 -64 -143 -80 -197 -30 -47 43 -53 74 -53 263 l0 176 -22
-6 c-53 -16 -168 -93 -228 -154 -73 -74 -105 -132 -121 -215 -39 -211 178
-430 516 -523 93 -25 114 -27 305 -27 181 -1 216 2 293 22 253 64 432 183 509
339 29 58 33 78 33 143 0 60 -5 86 -27 133 -45 95 -159 201 -287 266 -35 19
-45 20 -52 9 -5 -7 -9 -92 -9 -188 0 -158 -2 -178 -20 -208 -51 -84 -185 -79
-232 9 -17 32 -18 109 -18 1826 l0 1793 23 4 c12 2 70 14 128 25 58 12 109 21
112 21 4 0 7 -674 7 -1497 0 -824 3 -1508 6 -1519 4 -15 22 -28 52 -39 263
-99 462 -292 517 -501 20 -76 19 -206 -1 -275 -60 -203 -242 -385 -489 -485
-550 -225 -1259 -65 -1503 338 -49 81 -74 163 -79 258 -12 192 78 369 262 515
77 61 231 142 288 152 l37 6 0 1525 0 1525 33 -8 c17 -4 77 -15 132 -24z
m-574 -1799 c40 -45 40 -99 0 -144 l-29 -33 -779 -3 -778 -2 -29 -188 c-15
-103 -39 -252 -52 -332 -12 -80 -26 -170 -29 -200 -3 -30 -21 -165 -40 -300
-30 -218 -42 -306 -61 -457 -5 -41 -4 -43 20 -43 23 0 26 -4 26 -34 0 -28 -5
-35 -24 -40 -24 -6 -25 -10 -24 -84 0 -81 -16 -246 -32 -322 -5 -25 -12 -56
-14 -70 -6 -39 -17 -81 -32 -127 -7 -23 -15 -53 -18 -67 -2 -14 -16 -51 -30
-83 -14 -32 -35 -105 -45 -163 -11 -58 -38 -206 -60 -330 -22 -124 -45 -241
-50 -260 -6 -19 -38 -199 -71 -400 -34 -200 -63 -367 -66 -369 -3 -3 -46 -8
-97 -11 -51 -4 -99 -10 -108 -14 -13 -6 -10 29 22 236 66 415 117 757 139 918
12 85 39 270 60 410 34 222 50 336 66 455 8 66 36 220 41 228 3 5 5 27 5 50
-1 23 3 46 7 52 5 5 14 42 20 80 31 188 93 532 116 645 3 14 42 239 86 500 85
503 86 506 144 531 11 4 395 7 853 6 l834 -2 29 -33z m3454 24 c39 -16 59 -52
69 -116 14 -101 138 -813 185 -1060 27 -146 61 -328 76 -405 14 -77 39 -194
55 -260 44 -184 60 -281 60 -359 0 -39 13 -161 29 -271 32 -214 97 -677 107
-760 3 -27 34 -234 69 -460 35 -225 62 -411 60 -413 -2 -2 -12 1 -23 7 -12 6
-51 11 -89 11 -117 0 -100 -36 -167 363 -32 194 -67 393 -77 442 -10 50 -41
216 -68 370 -28 154 -52 289 -54 300 -23 108 -66 354 -113 655 -18 118 -22
146 -28 210 -2 25 -22 169 -45 320 -22 151 -43 298 -46 325 -4 40 -57 384
-131 858 l-6 37 -799 0 c-878 0 -842 -2 -874 60 -19 37 -19 63 1 101 31 60 0
58 927 59 711 0 853 -2 882 -14z m-4657 -2226 c18 -11 40 -36 49 -55 16 -34
15 -72 -21 -762 -41 -787 -38 -766 -99 -803 -29 -18 -52 -20 -270 -20 -280 0
-297 4 -330 79 l-19 44 72 421 c40 232 96 557 124 724 56 326 62 341 127 374
28 15 61 18 184 18 132 0 154 -2 183 -20z m3992 -5 c217 -55 389 -209 418
-375 4 -25 5 -189 2 -365 l-5 -320 -29 -60 c-61 -125 -215 -236 -391 -281
-102 -27 -322 -25 -426 4 -175 47 -319 153 -382 281 l-32 66 0 350 0 350 32
65 c75 152 253 266 468 301 74 12 270 2 345 -16z m-1170 -1865 c157 -5 776 -9
1376 -10 751 0 1101 -3 1122 -11 17 -6 39 -23 49 -37 17 -25 18 -70 21 -747 2
-671 1 -722 -15 -755 -10 -19 -29 -40 -43 -47 -19 -10 -207 -13 -832 -13 -444
0 -1067 -6 -1385 -12 -735 -16 -1562 -16 -2288 -1 -313 7 -891 13 -1283 13
-774 0 -755 -1 -780 55 -9 19 -12 211 -12 754 0 709 1 729 20 753 10 14 32 30
47 36 19 7 402 13 1193 17 641 4 1242 10 1335 15 202 9 1072 3 1475 -10z"/>
<path d="M57385 22209 c-128 -22 -211 -47 -314 -95 -87 -40 -215 -124 -290
-191 -69 -60 -204 -222 -227 -271 -9 -20 -33 -62 -53 -92 -217 -325 -281 -632
-210 -1008 82 -430 367 -806 766 -1007 200 -100 409 -148 643 -148 270 1 516
68 735 203 345 211 581 545 667 943 31 146 31 418 0 564 -60 276 -182 508
-371 705 -197 206 -417 335 -666 390 -134 30 -524 34 -680 7z m-241 -444 c32
-21 50 -67 42 -107 -5 -25 -31 -56 -108 -128 -56 -52 -127 -129 -158 -171
-113 -152 -196 -353 -221 -535 -11 -74 -17 -93 -40 -116 -22 -22 -37 -28 -73
-28 -100 0 -124 68 -87 246 45 218 125 402 245 561 74 99 180 207 258 263 47
34 104 40 142 15z m786 -2326 c-35 -10 -379 -22 -350 -13 16 5 265 21 340 22
l45 0 -35 -9z"/>
<path d="M55377 14605 c-31 -184 -127 -738 -133 -767 l-6 -28 61 0 61 0 0 38
c0 20 9 209 21 419 23 436 22 498 -4 338z"/>
<path d="M59285 14915 c-155 -34 -260 -123 -241 -201 12 -48 94 -118 167 -144
141 -49 341 -36 457 30 107 62 131 138 66 210 -87 96 -283 142 -449 105z"/>
<path d="M59040 14273 c0 -85 14 -120 63 -157 170 -130 477 -123 618 13 l49
47 0 82 c0 45 -2 82 -5 82 -2 0 -28 -9 -56 -20 -85 -34 -183 -50 -302 -50
-124 0 -215 16 -306 53 l-61 25 0 -75z"/>
<path d="M54590 12488 l0 -591 853 8 c468 4 1012 11 1207 15 357 8 1954 4
1999 -5 14 -2 503 -8 1088 -11 l1063 -7 0 591 0 592 -960 0 c-560 0 -1117 -5
-1337 -12 -480 -16 -1366 -16 -1813 0 -196 7 -723 12 -1222 12 l-878 0 0 -592z"/>
<path d="M52280 9396 l0 -1196 2328 0 c1712 0 2379 3 2522 12 250 16 1342 15
1535 0 99 -9 765 -12 2293 -12 l2152 0 0 1196 0 1196 -2092 -6 c-1151 -4
-2140 -11 -2198 -16 -93 -8 -223 -16 -620 -35 -381 -19 -1447 0 -1695 31 -95
11 -416 14 -2227 19 l-1998 6 0 -1195z m1482 666 c75 -36 123 -88 160 -168 19
-40 23 -66 23 -144 0 -84 -3 -102 -28 -152 -32 -65 -94 -130 -153 -159 -61
-29 -140 -39 -316 -39 l-158 0 0 -200 c0 -127 -4 -208 -11 -224 -12 -25 -63
-56 -94 -56 -28 0 -71 28 -83 55 -18 40 -16 1041 2 1074 27 49 42 51 326 48
l266 -2 66 -33z m757 3 l26 -25 3 -460 3 -460 245 0 c272 0 283 -2 304 -65 9
-26 8 -41 -4 -68 -27 -65 -40 -67 -371 -67 -314 0 -340 3 -365 49 -14 27 -14
1055 0 1081 29 53 113 61 159 15z m1437 3 c29 -30 474 -1017 474 -1050 0 -38
-44 -86 -85 -94 -68 -12 -88 12 -176 205 -43 96 -79 187 -79 203 0 35 -15 67
-41 88 -10 8 -49 82 -86 164 -38 82 -72 149 -76 150 -4 1 -39 -67 -77 -151
-37 -83 -77 -162 -88 -174 -12 -12 -25 -42 -31 -68 -11 -52 -153 -365 -178
-393 -42 -46 -133 -25 -159 37 -12 29 -12 41 -1 72 7 21 112 256 233 522 186
411 224 487 249 503 38 24 90 18 121 -14z m775 5 c10 -10 79 -103 153 -206
l135 -188 153 203 c135 179 157 204 189 212 48 12 89 -9 112 -57 15 -29 17
-44 9 -66 -6 -16 -98 -146 -205 -289 -149 -198 -203 -262 -226 -270 -30 -11
-62 -6 -92 13 -25 16 -381 517 -392 551 -19 63 44 130 112 120 19 -3 43 -13
52 -23z m1820 -10 c52 -31 73 -107 45 -161 -8 -15 -134 -187 -281 -382 l-266
-355 273 -5 c307 -6 315 -8 345 -78 22 -53 11 -100 -32 -140 l-35 -33 -436 3
-436 3 -29 33 c-24 26 -29 41 -29 82 0 48 3 53 208 327 114 153 240 321 279
373 l72 95 -237 5 c-162 3 -244 9 -259 17 -59 35 -80 110 -48 173 30 59 34 59
453 60 344 0 387 -2 413 -17z m1004 2 c145 -37 292 -149 362 -276 110 -197
104 -452 -15 -635 -77 -118 -208 -213 -342 -249 -70 -19 -210 -19 -280 0 -156
41 -305 163 -373 305 -38 80 -67 199 -67 275 0 140 64 303 161 409 73 79 140
123 244 158 94 32 214 37 310 13z m918 -6 c15 -11 133 -159 263 -330 131 -170
240 -309 243 -309 3 0 7 129 9 286 2 314 5 330 64 360 47 25 115 14 149 -23
25 -29 26 -33 32 -219 12 -348 9 -801 -7 -838 -28 -68 -107 -96 -174 -62 -15
8 -134 154 -272 334 l-245 320 -5 -297 c-4 -232 -8 -301 -19 -317 -49 -74
-177 -70 -216 6 -23 44 -23 1006 0 1050 30 59 127 80 178 39z m1972 -12 c19
-19 37 -47 41 -62 10 -39 -15 -103 -49 -129 -27 -20 -43 -21 -308 -24 l-280
-3 5 -67 c3 -37 5 -84 5 -104 l1 -38 199 0 c189 0 200 -1 232 -23 19 -13 40
-39 48 -61 13 -33 13 -44 0 -79 -27 -76 -42 -81 -276 -87 l-206 -5 -1 -102 -1
-103 265 0 c232 0 269 -2 300 -18 77 -38 91 -140 26 -199 l-36 -33 -364 0
-364 0 -31 26 c-17 14 -35 42 -41 62 -15 53 -6 992 10 1021 6 12 26 31 43 41
30 19 53 20 391 20 l358 0 33 -33z m-5329 -1062 c-32 -75 -127 -84 -173 -16
-22 33 -23 42 -23 239 0 191 1 204 18 197 58 -25 72 -27 104 -21 20 4 47 15
60 25 l23 19 3 -204 c2 -161 -1 -211 -12 -239z m-1093 424 c49 -22 61 -86 22
-124 -23 -24 -30 -25 -150 -25 -70 0 -135 4 -145 10 -25 13 -41 65 -30 94 17
47 45 56 167 56 62 0 123 -5 136 -11z"/>
<path d="M53297 9893 c-4 -3 -7 -69 -7 -145 l0 -138 183 0 c160 0 186 2 213
19 64 39 83 147 37 210 -39 53 -72 61 -254 61 -91 0 -169 -3 -172 -7z"/>
<path d="M59304 9810 c-70 -28 -139 -97 -177 -178 -27 -57 -31 -78 -31 -147 0
-69 4 -90 31 -147 124 -265 462 -265 586 0 27 57 31 78 31 147 0 69 -4 90 -30
145 -36 76 -96 139 -162 172 -66 32 -178 35 -248 8z"/>
<path d="M49426 10241 c9 -9 442 -281 859 -541 127 -78 243 -155 258 -169 79
-73 85 -191 14 -266 -18 -19 -278 -187 -579 -375 -301 -188 -550 -345 -553
-351 -4 -6 456 -8 1232 -7 l1238 3 3 858 2 857 -1242 0 c-716 0 -1238 -4
-1232 -9z"/>
<path d="M63500 9390 l0 -860 1235 0 c679 0 1235 3 1235 8 0 4 -224 147 -497
317 -689 431 -638 397 -663 446 -31 60 -25 152 12 201 19 25 193 139 575 378
301 189 557 349 568 357 16 11 -185 13 -1223 13 l-1242 0 0 -860z"/>
<path d="M9996 21667 c-55 -72 -87 -229 -85 -417 5 -409 155 -869 352 -1077
55 -58 93 -83 126 -83 36 0 89 99 106 198 l7 42 -49 0 c-170 0 -336 230 -402
558 -61 302 -5 548 140 623 44 22 44 21 -10 87 -41 51 -111 102 -140 102 -11
0 -31 -15 -45 -33z"/>
<path d="M10304 21228 c-5 -7 -8 -62 -7 -123 2 -164 62 -372 132 -461 l20 -26
7 27 c12 46 -4 256 -24 330 -39 141 -110 282 -128 253z"/>
<path d="M39369 21582 c-108 -113 -119 -132 -19 -35 52 51 92 95 89 97 -3 3
-34 -25 -70 -62z"/>
<path d="M36986 19160 c-49 -50 -86 -93 -82 -97 3 -4 20 7 37 23 51 48 152
164 143 164 -5 -1 -49 -41 -98 -90z"/>
<path d="M30105 21510 c49 -49 94 -90 100 -90 5 0 -31 41 -80 90 -49 50 -94
90 -100 90 -5 0 31 -40 80 -90z"/>
<path d="M32252 19358 c9 -13 24 -25 34 -27 17 -3 16 0 -5 23 -30 32 -49 34
-29 4z"/>
<path d="M32320 19295 c13 -14 26 -23 28 -20 7 7 -29 45 -41 45 -6 0 0 -11 13
-25z"/>
<path d="M32410 19211 c0 -5 5 -13 10 -16 6 -3 10 -2 10 4 0 5 -4 13 -10 16
-5 3 -10 2 -10 -4z"/>
<path d="M34600 21517 c-226 -68 -396 -245 -456 -477 -22 -84 -22 -234 0 -319
59 -229 247 -415 481 -476 75 -19 231 -19 314 0 214 51 411 240 477 460 14 45
18 91 18 185 -1 108 -4 135 -27 198 -37 106 -82 176 -167 262 -128 129 -281
191 -469 189 -69 0 -117 -6 -171 -22z"/>
<path d="M8293 21298 c-59 -65 -93 -198 -98 -388 -4 -146 6 -248 41 -420 47
-227 142 -470 244 -620 43 -63 136 -154 168 -164 55 -18 100 54 136 217 6 25
4 27 -22 27 -146 0 -300 186 -376 455 -37 131 -49 239 -43 378 7 178 44 268
137 336 l39 28 -50 61 c-44 55 -119 112 -146 112 -5 0 -19 -10 -30 -22z"/>
<path d="M8613 20845 c-15 -38 -7 -216 15 -307 34 -139 108 -298 131 -284 15
9 20 108 10 191 -18 152 -75 324 -132 400 l-16 20 -8 -20z"/>
<path d="M7505 17464 c-944 -55 -1777 -496 -2334 -1234 -347 -460 -555 -1000
-612 -1584 -17 -178 -6 -569 20 -723 53 -307 146 -589 302 -913 202 -418 404
-695 698 -953 233 -205 430 -337 706 -472 257 -126 477 -202 745 -255 251 -50
305 -55 625 -55 336 1 453 13 720 79 348 86 637 212 969 424 60 38 79 39 204
8 95 -24 116 -29 197 -46 75 -16 623 -145 825 -194 52 -13 129 -31 170 -40 90
-20 459 -105 660 -152 253 -60 444 -105 462 -109 36 -8 175 -47 213 -61 22 -7
191 -52 375 -99 184 -46 394 -100 465 -119 72 -19 263 -69 425 -111 494 -127
564 -147 587 -164 12 -9 64 -86 115 -171 252 -419 540 -720 943 -986 829 -547
1884 -663 2804 -308 1026 397 1762 1288 1950 2364 73 417 61 818 -36 1190 -43
168 -111 377 -124 385 -5 4 -7 11 -4 16 4 5 2 9 -4 9 -6 0 -7 7 -4 17 4 10 2
14 -4 10 -6 -4 -10 3 -10 16 0 49 -178 426 -272 577 -122 195 -319 432 -487
585 -423 385 -883 626 -1444 756 -69 15 -206 49 -305 75 -444 113 -2001 493
-2480 604 -121 28 -303 71 -405 95 -102 24 -196 46 -210 49 -14 2 -65 13 -115
24 -289 66 -332 72 -472 76 -78 3 -147 7 -151 10 -5 3 -31 8 -58 11 -27 3 -74
10 -104 16 -30 6 -62 11 -70 11 -19 0 -143 27 -387 86 -192 45 -193 46 -193
73 0 23 -6 29 -52 44 -29 10 -57 18 -63 19 -5 1 -15 5 -21 9 -15 9 -24 -2 -24
-29 l0 -22 -82 25 c-120 36 -331 122 -344 139 -6 8 -18 14 -27 14 -9 0 -20 6
-24 13 -4 8 -89 35 -188 61 -99 26 -189 52 -200 57 -11 4 -144 40 -295 79
-304 79 -464 121 -555 146 -33 9 -481 122 -995 251 -514 129 -993 250 -1065
268 -167 44 -318 72 -475 90 -133 15 -385 25 -485 19z m403 -438 c480 -73 944
-274 1278 -554 90 -75 108 -118 79 -188 -23 -53 -68 -84 -125 -84 -40 0 -52 7
-183 107 -126 97 -236 164 -392 239 -211 103 -420 169 -655 210 -128 21 -485
30 -621 15 -540 -62 -1041 -302 -1420 -684 -331 -332 -547 -737 -639 -1196
-61 -307 -65 -552 -14 -861 110 -660 513 -1255 1094 -1615 252 -156 572 -271
890 -321 161 -26 519 -26 680 -1 398 63 757 213 1070 448 305 229 538 511 706
854 155 317 231 636 238 1000 5 237 -14 391 -80 645 -31 117 -34 140 -24 172
27 93 154 122 222 51 31 -32 67 -147 103 -328 132 -665 -8 -1385 -380 -1949
-356 -541 -918 -942 -1540 -1101 -383 -98 -741 -110 -1125 -40 -1130 205
-1993 1119 -2136 2260 -32 256 -17 608 36 862 164 785 686 1459 1405 1813 293
144 570 221 945 264 82 9 490 -3 588 -18z m31 -981 c146 -36 284 -76 313 -91
63 -32 151 -114 185 -172 14 -23 34 -70 44 -103 33 -105 26 -165 -50 -474 -38
-154 -67 -283 -63 -286 4 -3 129 -36 277 -73 165 -41 294 -78 331 -96 75 -37
167 -131 206 -211 32 -66 51 -174 42 -238 -15 -107 -126 -529 -154 -588 -53
-107 -179 -204 -301 -232 -93 -22 -157 -13 -449 59 -156 39 -284 69 -285 68
-1 -2 -33 -127 -70 -278 -37 -151 -79 -299 -92 -328 -75 -161 -280 -278 -452
-258 -109 13 -534 126 -595 159 -83 44 -148 112 -193 203 -34 70 -38 85 -41
173 -3 91 0 110 66 374 38 152 66 279 63 282 -4 2 -128 33 -277 69 -174 43
-291 77 -332 97 -161 79 -265 262 -248 439 9 95 119 531 151 596 40 83 119
157 211 201 69 33 89 38 169 41 83 3 110 -1 355 -62 146 -35 274 -66 284 -68
17 -3 26 25 88 272 38 151 81 302 97 336 53 114 188 219 311 243 94 18 145 12
409 -54z m5648 -111 c248 -64 659 -171 686 -179 9 -3 26 -7 37 -10 11 -3 28
-7 38 -10 9 -2 300 -76 645 -164 345 -87 639 -166 652 -175 35 -23 48 -53 42
-98 -6 -45 -26 -71 -67 -88 -26 -11 -153 18 -1177 270 -738 182 -1158 290
-1175 302 -32 22 -54 84 -44 123 4 15 20 40 36 56 40 41 72 38 327 -27z m3394
-1169 c969 -113 1785 -740 2142 -1645 123 -313 177 -602 178 -960 1 -281 -29
-490 -107 -755 -178 -602 -581 -1132 -1119 -1470 -127 -80 -388 -206 -528
-254 -664 -230 -1376 -190 -1997 110 -444 215 -793 517 -1061 919 -81 121
-221 399 -274 544 -109 296 -174 682 -160 941 3 55 8 141 10 190 22 392 186
862 428 1227 286 430 700 772 1167 966 238 99 528 173 765 195 111 10 441 6
556 -8z m-4686 -1079 c721 -180 1333 -338 1361 -350 134 -61 215 -192 215
-346 0 -63 -20 -159 -131 -600 -72 -289 -140 -544 -151 -567 -34 -70 -103
-139 -176 -175 -55 -27 -79 -33 -152 -36 -81 -3 -106 2 -466 92 -209 52 -807
201 -1329 330 -522 130 -973 247 -1002 260 -139 64 -239 244 -218 390 12 79
264 1078 283 1121 24 55 92 129 148 162 73 43 120 53 218 49 78 -3 268 -48
1400 -330z"/>
<path d="M7544 15815 c-27 -13 -59 -39 -71 -57 -13 -21 -53 -161 -109 -388
-82 -332 -90 -357 -119 -387 -18 -17 -45 -35 -60 -39 -21 -5 -127 17 -380 79
-193 48 -368 87 -388 87 -66 0 -131 -40 -161 -100 -7 -14 -39 -131 -71 -260
-63 -254 -64 -278 -22 -341 42 -62 71 -73 420 -159 182 -44 344 -86 360 -92
36 -14 75 -61 82 -101 5 -23 -19 -132 -79 -374 -47 -189 -86 -361 -86 -384 0
-53 24 -103 68 -139 29 -24 75 -39 285 -90 232 -58 253 -61 291 -50 53 16 90
42 114 83 11 17 59 191 107 385 79 318 91 356 117 382 52 52 67 51 452 -44
193 -47 364 -86 380 -86 46 0 115 39 141 79 16 23 45 120 85 279 55 221 59
247 49 285 -13 51 -50 102 -88 122 -16 8 -186 54 -377 101 -315 79 -351 90
-382 118 -56 51 -54 69 42 456 47 190 86 359 86 375 -1 46 -34 109 -74 140
-28 21 -86 39 -276 86 -132 32 -251 59 -263 59 -13 0 -45 -11 -73 -25z"/>
<path d="M16504 14510 c-969 -75 -1799 -740 -2079 -1665 -174 -578 -126 -1180
139 -1720 233 -475 601 -844 1075 -1079 502 -248 1089 -311 1621 -172 323 84
650 249 907 457 380 308 672 761 792 1232 122 475 99 954 -66 1405 -245 667
-777 1188 -1444 1417 -301 103 -642 148 -945 125z m582 -601 c163 -30 335
-158 413 -308 127 -244 86 -528 -103 -715 -80 -80 -173 -135 -276 -161 -92
-24 -272 -17 -354 13 -178 65 -314 203 -377 382 -33 94 -34 286 -1 381 71 208
249 367 457 409 60 12 173 11 241 -1z m-1341 -897 c158 -63 285 -189 346 -347
25 -64 33 -100 37 -177 6 -127 -9 -201 -63 -313 -69 -144 -179 -243 -333 -302
-90 -34 -246 -42 -346 -19 -271 64 -466 311 -466 591 1 235 128 442 335 544
102 51 156 61 290 58 107 -3 129 -7 200 -35z m2225 -548 c199 -46 370 -202
441 -400 29 -82 36 -236 15 -327 -53 -224 -228 -401 -451 -456 -69 -17 -228
-15 -299 4 -203 54 -378 230 -430 431 -26 99 -21 249 9 340 51 151 163 284
303 357 122 64 276 83 412 51z m-1432 -869 c153 -36 318 -164 390 -302 63
-121 88 -286 61 -415 -6 -29 -29 -91 -51 -138 -76 -159 -233 -286 -406 -326
-92 -22 -242 -14 -337 17 -147 49 -280 168 -350 314 -47 99 -59 163 -52 291 6
134 30 209 101 313 81 119 196 201 340 242 76 22 219 24 304 4z"/>
<path d="M16873 13630 c-47 -11 -116 -54 -153 -97 -37 -42 -77 -124 -82 -168
-3 -27 0 -30 30 -33 28 -3 32 -7 32 -33 0 -16 5 -29 10 -29 16 0 49 -83 38
-96 -5 -8 5 -27 32 -55 23 -24 43 -43 45 -42 3 1 22 -5 42 -14 21 -9 67 -16
103 -17 82 -1 140 25 203 89 46 46 57 70 37 77 -12 4 7 78 20 78 6 0 10 11 10
24 0 19 6 25 28 28 24 3 27 7 23 33 -10 85 -99 198 -188 237 -47 21 -173 31
-230 18z"/>
<path d="M15483 12773 c-51 -6 -39 -20 20 -22 60 -2 140 -25 157 -47 7 -7 19
-14 27 -14 7 0 16 -7 19 -15 4 -8 11 -12 16 -9 6 4 9 1 6 -6 -2 -7 6 -23 19
-36 13 -13 23 -30 23 -39 0 -8 5 -15 11 -15 5 0 7 -4 4 -10 -3 -5 -2 -10 2
-10 5 0 9 -8 10 -17 0 -10 3 -39 6 -64 8 -61 -4 -103 -29 -107 -19 -3 -20 2
-16 57 12 160 -101 281 -268 287 -88 3 -142 -17 -203 -78 -58 -57 -81 -118
-79 -210 1 -87 20 -133 79 -199 32 -35 123 -93 107 -68 -3 5 40 9 103 9 73 0
103 -3 93 -10 -8 -5 -24 -10 -34 -10 -15 0 -17 -3 -9 -11 16 -16 70 -4 139 31
107 55 167 160 167 290 0 191 -179 346 -370 323z"/>
<path d="M15435 12130 c11 -5 27 -9 35 -9 9 0 8 4 -5 9 -11 5 -27 9 -35 9 -9
0 -8 -4 5 -9z"/>
<path d="M15515 12131 c-3 -5 -1 -12 5 -16 5 -3 10 1 10 9 0 18 -6 21 -15 7z"/>
<path d="M17783 12201 c-42 -7 -143 -49 -143 -60 0 -5 152 -5 320 2 l65 2 -40
22 c-31 16 -155 49 -159 42 -1 -1 -20 -5 -43 -8z"/>
<path d="M17604 12108 l-19 -23 23 19 c21 18 27 26 19 26 -2 0 -12 -10 -23
-22z"/>
<path d="M17730 12113 c-32 -15 -33 -17 -13 -22 20 -5 19 -8 -16 -24 -23 -11
-50 -38 -70 -68 -17 -27 -38 -49 -46 -49 -16 0 -19 -20 -17 -101 2 -130 131
-249 268 -249 112 0 229 82 258 181 29 98 10 210 -37 225 -12 4 -31 17 -42 29
-11 12 -31 28 -45 35 -23 12 -24 14 -5 20 18 7 17 9 -10 21 -47 20 -183 21
-225 2z"/>
<path d="M17813 11543 c9 -2 25 -2 35 0 9 3 1 5 -18 5 -19 0 -27 -2 -17 -5z"/>
<path d="M16342 11328 c-103 -15 -201 -89 -248 -185 -22 -43 -27 -69 -28 -132
-1 -71 2 -84 38 -155 42 -83 82 -122 163 -158 58 -26 166 -28 230 -5 40 15
126 67 111 67 -18 0 -88 -33 -88 -42 0 -5 -4 -6 -10 -3 -5 3 -10 3 -10 -2 0
-4 -29 -9 -65 -11 -54 -2 -64 0 -59 13 4 9 18 15 36 15 69 0 169 44 154 68 -6
10 51 66 77 75 9 4 16 10 15 14 -6 23 15 53 37 53 19 0 24 7 29 38 8 46 -16
142 -50 199 -63 107 -201 170 -332 151z m163 -32 c15 -3 31 -9 34 -14 3 -5 20
-17 36 -26 l30 -17 -45 5 c-25 2 -70 10 -100 16 -60 13 -112 10 -181 -10 -48
-14 -97 -7 -69 10 8 5 18 6 22 4 5 -3 11 1 14 10 3 9 12 12 21 9 11 -4 14 -2
9 5 -4 7 1 10 14 7 11 -2 20 -1 20 3 0 4 31 7 70 7 38 0 70 4 70 9 0 5 6 4 13
-2 7 -6 26 -13 42 -16z m-397 -401 c-3 -3 -9 2 -12 12 -6 14 -5 15 5 6 7 -7
10 -15 7 -18z"/>
<path d="M10805 13718 c-35 -33 -36 -37 -160 -536 -69 -277 -125 -521 -125
-544 0 -32 7 -47 33 -72 31 -32 57 -39 942 -259 1372 -341 1725 -427 1756
-427 17 0 42 12 63 30 34 31 35 33 160 539 69 280 126 525 126 546 0 28 -7 44
-32 69 -32 32 -60 39 -943 259 -1363 339 -1724 427 -1756 427 -19 0 -41 -11
-64 -32z m707 -623 c187 -47 349 -90 360 -96 31 -16 58 -71 58 -115 0 -56 -34
-105 -86 -123 -39 -14 -52 -11 -380 69 -186 45 -356 89 -377 97 -70 28 -100
101 -71 173 20 50 63 80 117 80 20 0 191 -38 379 -85z m1188 -295 c330 -83
357 -91 382 -119 76 -84 19 -221 -92 -221 -51 0 -715 166 -746 187 -31 20 -54
69 -54 115 0 66 62 127 130 127 14 0 185 -40 380 -89z"/>
<path d="M37850 17091 c0 -8 248 -21 259 -14 12 8 -14 11 -131 16 -74 4 -128
3 -128 -2z"/>
<path d="M40302 16991 c41 -13 435 -25 423 -13 -6 5 -106 12 -230 15 -124 3
-208 2 -193 -2z"/>
<path d="M41150 16961 c0 -4 17 -11 38 -15 56 -9 232 -7 232 2 0 5 -44 12 -97
15 -132 9 -173 9 -173 -2z"/>
<path d="M28621 16990 c7 -17 18 -30 28 -30 9 0 22 13 28 30 l11 30 -38 0
c-39 0 -39 0 -29 -30z"/>
<path d="M31375 16950 c-47 -5 -31 -7 73 -8 82 -1 132 2 132 8 0 11 -106 11
-205 0z"/>
<path d="M34710 15377 c-63 -105 -121 -202 -128 -214 l-14 -23 261 0 261 0
-96 157 c-53 87 -113 183 -133 215 l-37 58 -114 -193z"/>
<path d="M33367 14853 c-4 -3 -7 -237 -7 -520 l0 -513 1395 0 1395 0 0 520 0
520 -320 0 c-311 0 -348 -3 -370 -31 -3 -4 -97 -10 -210 -13 -113 -3 -225 -9
-250 -12 -25 -4 -162 -8 -305 -9 -143 -2 -305 -6 -359 -9 -113 -8 -186 9 -232
50 l-25 24 -353 0 c-194 0 -356 -3 -359 -7z"/>
<path d="M38653 14229 c-79 -15 -139 -59 -177 -129 -72 -132 -25 -288 108
-358 41 -22 64 -26 121 -26 84 0 133 22 189 84 51 56 66 97 66 175 0 164 -146
286 -307 254z"/>
<path d="M30471 13972 c-69 -37 -71 -49 -71 -400 0 -347 -3 -366 -62 -402 -31
-19 -50 -20 -345 -20 -350 0 -375 -4 -413 -65 -18 -30 -20 -49 -20 -256 0
-205 2 -227 20 -256 37 -62 46 -63 397 -63 300 0 320 -1 351 -20 18 -11 41
-34 52 -52 19 -31 20 -51 20 -351 0 -351 1 -360 63 -397 29 -18 51 -20 256
-20 205 0 226 2 256 20 58 36 60 44 65 407 l5 331 25 28 c48 52 64 54 397 54
432 0 413 -15 413 321 0 208 -1 217 -23 250 -44 67 -56 69 -402 69 -348 0
-364 3 -397 70 -16 31 -18 70 -18 345 0 346 -2 358 -69 402 -33 22 -42 23
-250 23 -190 0 -220 -2 -250 -18z"/>
<path d="M37627 13216 c-70 -19 -125 -63 -161 -126 -26 -46 -30 -65 -30 -125
0 -60 4 -78 30 -125 70 -124 227 -171 353 -105 38 19 100 90 118 134 22 51 20
148 -4 202 -22 49 -88 114 -137 134 -50 21 -117 25 -169 11z"/>
<path d="M39655 13221 c-116 -30 -192 -117 -202 -231 -14 -155 101 -283 256
-283 76 0 121 16 176 64 138 122 99 364 -70 435 -42 17 -122 25 -160 15z"/>
<path d="M38619 12206 c-155 -55 -222 -231 -142 -377 46 -86 122 -129 228
-129 148 0 254 107 255 258 0 80 -27 138 -90 195 -71 64 -165 84 -251 53z"/>
<path d="M33423 12071 c-144 -49 -226 -163 -227 -311 0 -60 6 -87 26 -132 32
-69 96 -135 163 -168 l50 -25 1320 0 1320 0 56 28 c66 32 132 99 162 165 17
36 22 66 22 132 0 66 -5 96 -22 132 -30 66 -92 129 -160 164 l-58 29 -339 3
c-267 3 -359 0 -430 -12 -271 -45 -412 -51 -391 -15 4 5 16 9 27 9 12 0 18 3
15 7 -4 3 -124 8 -267 11 -217 3 -260 1 -260 -10 0 -32 -20 -34 -152 -11 -120
20 -166 22 -468 22 -296 0 -341 -2 -387 -18z"/>
<path d="M34983 12083 c9 -2 25 -2 35 0 9 3 1 5 -18 5 -19 0 -27 -2 -17 -5z"/>
<path d="M31935 11126 c-256 -40 -475 -167 -615 -355 -98 -132 -200 -359 -238
-531 -23 -103 -20 -279 7 -382 93 -359 364 -641 713 -742 469 -136 966 74
1197 505 104 194 145 424 105 596 -20 87 -78 283 -103 349 -49 127 -151 256
-283 357 -227 173 -508 246 -783 203z m324 -216 c210 -43 401 -173 528 -360
91 -134 123 -249 123 -438 0 -233 -75 -420 -235 -583 -102 -105 -212 -170
-362 -215 -76 -23 -106 -27 -223 -27 -117 0 -147 4 -223 27 -147 44 -250 104
-355 208 -129 128 -209 289 -238 480 -53 356 124 681 462 845 163 79 342 101
523 63z"/>
<path d="M31925 10691 c-159 -46 -301 -164 -374 -312 -93 -188 -93 -360 0
-548 75 -151 216 -266 382 -311 69 -19 99 -22 187 -17 128 6 203 30 306 99 93
62 155 132 205 233 90 183 90 358 -2 544 -75 152 -224 273 -385 315 -83 21
-240 20 -319 -3z"/>
<path d="M37035 11126 c-169 -27 -350 -108 -459 -208 -65 -59 -69 -70 -48
-121 17 -39 15 -47 -9 -47 -16 0 -19 -4 -14 -17 4 -10 10 -30 13 -45 4 -28 16
-36 27 -18 3 5 31 26 61 47 210 143 358 200 544 210 147 7 266 -18 408 -87 93
-46 117 -63 202 -149 182 -181 259 -373 247 -621 -7 -142 -23 -207 -87 -336
-102 -209 -291 -362 -525 -425 -123 -34 -308 -31 -430 5 -134 41 -235 98 -333
191 -158 149 -223 279 -266 535 -20 124 -24 167 -17 215 5 33 7 62 5 64 -2 2
-21 -3 -41 -12 -21 -9 -55 -21 -75 -28 -34 -12 -38 -16 -43 -58 -3 -25 -12
-78 -21 -117 -45 -209 100 -559 313 -755 32 -29 95 -77 140 -106 591 -386
1384 -76 1564 613 26 103 36 285 20 395 -57 386 -327 710 -696 833 -154 52
-322 66 -480 42z"/>
<path d="M37036 10695 c-184 -51 -317 -182 -410 -405 -37 -89 -40 -102 -40
-195 -1 -125 26 -217 96 -322 150 -224 420 -324 676 -250 200 58 356 216 418
422 24 82 24 239 0 320 -63 211 -230 375 -436 430 -68 18 -237 18 -304 0z"/>
</g>
</svg>
